{
    "asset" : {
        "generator" : "Khronos glTF Blender I/O v0.9.36",
        "version" : "2.0"
    },
    "scene" : 0,
    "scenes" : [
        {
            "name" : "Scene",
            "nodes" : [
                0,
                1,
                2,
                3,
                4,
                5
            ]
        }
    ],
    "nodes" : [
        {
            "name" : "Light",
            "rotation" : [
                0.16907575726509094,
                0.7558803558349609,
                -0.27217137813568115,
                0.570947527885437
            ],
            "translation" : [
                4.076245307922363,
                5.903861999511719,
                -1.0054539442062378
            ]
        },
        {
            "name" : "Camera",
            "rotation" : [
                0.483536034822464,
                0.33687159419059753,
                -0.20870360732078552,
                0.7804827094078064
            ],
            "translation" : [
                4.30445671081543,
                2.979700803756714,
                4.316853046417236
            ]
        },
        {
            "mesh" : 0,
            "name" : "needle"
        },
        {
            "mesh" : 1,
            "name" : "piston"
        },
        {
            "mesh" : 2,
            "name" : "void"
        },
        {
            "mesh" : 3,
            "name" : "fluid",
            "rotation" : [
                0,
                0.7071067094802856,
                -0.7071068286895752,
                -3.0908616110991716e-08
            ],
            "scale" : [
                -0.006849904078990221,
                -0.03684990480542183,
                -0.006206916645169258
            ],
            "translation" : [
                -7.317401468753815e-05,
                -0.0002953491930384189,
                -0.015292918309569359
            ]
        }
    ],
    "animations" : [
        {
            "channels" : [
                {
                    "sampler" : 0,
                    "target" : {
                        "node" : 3,
                        "path" : "translation"
                    }
                }
            ],
            "name" : "pistonAction.002",
            "samplers" : [
                {
                    "input" : 28,
                    "interpolation" : "CUBICSPLINE",
                    "output" : 29
                }
            ]
        }
    ],
    "materials" : [
        {
            "alphaMode" : "BLEND",
            "doubleSided" : true,
            "name" : "dbl_needle_002",
            "pbrMetallicRoughness" : {
                "baseColorFactor" : [
                    0.19495899975299835,
                    0.7686269879341125,
                    0.21495988965034485,
                    0.5357142686843872
                ],
                "metallicFactor" : 0,
                "roughnessFactor" : 0.17599999904632568
            }
        },
        {
            "doubleSided" : true,
            "name" : "dbl_bigcup_001",
            "pbrMetallicRoughness" : {
                "baseColorFactor" : [
                    0.3757499158382416,
                    0.3757499158382416,
                    0.3757499158382416,
                    1
                ],
                "metallicFactor" : 0.6800000071525574,
                "roughnessFactor" : 0.5013578534126282
            }
        },
        {
            "doubleSided" : true,
            "name" : "dbl_piston_001",
            "pbrMetallicRoughness" : {
                "baseColorFactor" : [
                    0.11764699965715408,
                    0.11764699965715408,
                    0.11764699965715408,
                    1
                ],
                "metallicFactor" : 0,
                "roughnessFactor" : 0.5527864098548889
            }
        },
        {
            "doubleSided" : true,
            "name" : "dbl_piston_002",
            "pbrMetallicRoughness" : {
                "baseColorFactor" : [
                    1,
                    1,
                    1,
                    1
                ],
                "metallicFactor" : 0,
                "roughnessFactor" : 0.5527864098548889
            }
        },
        {
            "alphaMode" : "BLEND",
            "doubleSided" : true,
            "name" : "dbl_injection_void_001.001",
            "pbrMetallicRoughness" : {
                "baseColorFactor" : [
                    0.800000011920929,
                    0.800000011920929,
                    0.800000011920929,
                    1
                ],
                "metallicFactor" : 0,
                "roughnessFactor" : 0.47428572177886963
            }
        },
        {
            "alphaMode" : "BLEND",
            "doubleSided" : true,
            "name" : "dbl_injection_void_002.001",
            "pbrMetallicRoughness" : {
                "baseColorFactor" : [
                    0.800000011920929,
                    0.800000011920929,
                    0.800000011920929,
                    0.45714259147644043
                ],
                "metallicFactor" : 0,
                "roughnessFactor" : 0.4690553843975067
            }
        },
        {
            "alphaCutoff" : 1,
            "alphaMode" : "MASK",
            "doubleSided" : true,
            "name" : "Material",
            "pbrMetallicRoughness" : {
                "metallicFactor" : 0,
                "roughnessFactor" : 0.4000000059604645
            }
        }
    ],
    "meshes" : [
        {
            "name" : "needle_002_Mesh.005",
            "primitives" : [
                {
                    "attributes" : {
                        "POSITION" : 0,
                        "NORMAL" : 1,
                        "TEXCOORD_0" : 2
                    },
                    "indices" : 3,
                    "material" : 0
                },
                {
                    "attributes" : {
                        "POSITION" : 4,
                        "NORMAL" : 5,
                        "TEXCOORD_0" : 6
                    },
                    "indices" : 7,
                    "material" : 1
                }
            ]
        },
        {
            "name" : "piston",
            "primitives" : [
                {
                    "attributes" : {
                        "POSITION" : 8,
                        "NORMAL" : 9,
                        "TEXCOORD_0" : 10
                    },
                    "indices" : 11,
                    "material" : 2
                },
                {
                    "attributes" : {
                        "POSITION" : 12,
                        "NORMAL" : 13,
                        "TEXCOORD_0" : 14
                    },
                    "indices" : 15,
                    "material" : 3
                }
            ]
        },
        {
            "name" : "injection_void_001_Mesh.014",
            "primitives" : [
                {
                    "attributes" : {
                        "POSITION" : 16,
                        "NORMAL" : 17,
                        "TEXCOORD_0" : 18
                    },
                    "indices" : 19,
                    "material" : 4
                },
                {
                    "attributes" : {
                        "POSITION" : 20,
                        "NORMAL" : 21,
                        "TEXCOORD_0" : 22
                    },
                    "indices" : 23,
                    "material" : 5
                }
            ]
        },
        {
            "name" : "Cylinder",
            "primitives" : [
                {
                    "attributes" : {
                        "POSITION" : 24,
                        "NORMAL" : 25,
                        "TEXCOORD_0" : 26
                    },
                    "indices" : 27,
                    "material" : 6
                }
            ]
        }
    ],
    "accessors" : [
        {
            "bufferView" : 0,
            "componentType" : 5126,
            "count" : 386,
            "max" : [
                0.002879134379327297,
                0.0033310847356915474,
                -0.056724630296230316
            ],
            "min" : [
                -0.003737860359251499,
                -0.003285519778728485,
                -0.06780526787042618
            ],
            "type" : "VEC3"
        },
        {
            "bufferView" : 1,
            "componentType" : 5126,
            "count" : 386,
            "type" : "VEC3"
        },
        {
            "bufferView" : 2,
            "componentType" : 5126,
            "count" : 386,
            "type" : "VEC2"
        },
        {
            "bufferView" : 3,
            "componentType" : 5123,
            "count" : 1296,
            "type" : "SCALAR"
        },
        {
            "bufferView" : 4,
            "componentType" : 5126,
            "count" : 152,
            "max" : [
                0.00040813442319631577,
                0.0008789235725998878,
                -0.06448671221733093
            ],
            "min" : [
                -0.0012668604031205177,
                -0.0007957448251545429,
                -0.11383961886167526
            ],
            "type" : "VEC3"
        },
        {
            "bufferView" : 5,
            "componentType" : 5126,
            "count" : 152,
            "type" : "VEC3"
        },
        {
            "bufferView" : 6,
            "componentType" : 5126,
            "count" : 152,
            "type" : "VEC2"
        },
        {
            "bufferView" : 7,
            "componentType" : 5123,
            "count" : 432,
            "type" : "SCALAR"
        },
        {
            "bufferView" : 8,
            "componentType" : 5126,
            "count" : 409,
            "max" : [
                0.007000380661338568,
                0.007088144309818745,
                -0.04148275777697563
            ],
            "min" : [
                -0.006999617908149958,
                -0.006920448504388332,
                -0.05265386030077934
            ],
            "type" : "VEC3"
        },
        {
            "bufferView" : 9,
            "componentType" : 5126,
            "count" : 409,
            "type" : "VEC3"
        },
        {
            "bufferView" : 10,
            "componentType" : 5126,
            "count" : 409,
            "type" : "VEC2"
        },
        {
            "bufferView" : 11,
            "componentType" : 5123,
            "count" : 2376,
            "type" : "SCALAR"
        },
        {
            "bufferView" : 12,
            "componentType" : 5126,
            "count" : 593,
            "max" : [
                0.01315738633275032,
                0.01337873749434948,
                0.06814943999052048
            ],
            "min" : [
                -0.013157617300748825,
                -0.0129385469481349,
                -0.04149964824318886
            ],
            "type" : "VEC3"
        },
        {
            "bufferView" : 13,
            "componentType" : 5126,
            "count" : 593,
            "type" : "VEC3"
        },
        {
            "bufferView" : 14,
            "componentType" : 5126,
            "count" : 593,
            "type" : "VEC2"
        },
        {
            "bufferView" : 15,
            "componentType" : 5123,
            "count" : 930,
            "type" : "SCALAR"
        },
        {
            "bufferView" : 16,
            "componentType" : 5126,
            "count" : 868,
            "max" : [
                0.018999628722667694,
                0.015060684643685818,
                0.04412132874131203
            ],
            "min" : [
                -0.019000373780727386,
                -0.01551918312907219,
                -0.06448742002248764
            ],
            "type" : "VEC3"
        },
        {
            "bufferView" : 17,
            "componentType" : 5126,
            "count" : 868,
            "type" : "VEC3"
        },
        {
            "bufferView" : 18,
            "componentType" : 5126,
            "count" : 868,
            "type" : "VEC2"
        },
        {
            "bufferView" : 19,
            "componentType" : 5123,
            "count" : 1824,
            "type" : "SCALAR"
        },
        {
            "bufferView" : 20,
            "componentType" : 5126,
            "count" : 52,
            "max" : [
                0.007999628782272339,
                0.007950245402753353,
                0.04310748353600502
            ],
            "min" : [
                -0.008000373840332031,
                -0.008227814920246601,
                -0.05271456763148308
            ],
            "type" : "VEC3"
        },
        {
            "bufferView" : 21,
            "componentType" : 5126,
            "count" : 52,
            "type" : "VEC3"
        },
        {
            "bufferView" : 22,
            "componentType" : 5126,
            "count" : 52,
            "type" : "VEC2"
        },
        {
            "bufferView" : 23,
            "componentType" : 5123,
            "count" : 144,
            "type" : "SCALAR"
        },
        {
            "bufferView" : 24,
            "componentType" : 5126,
            "count" : 192,
            "max" : [
                1,
                1,
                1
            ],
            "min" : [
                -1,
                -1,
                -1
            ],
            "type" : "VEC3"
        },
        {
            "bufferView" : 25,
            "componentType" : 5126,
            "count" : 192,
            "type" : "VEC3"
        },
        {
            "bufferView" : 26,
            "componentType" : 5126,
            "count" : 192,
            "type" : "VEC2"
        },
        {
            "bufferView" : 27,
            "componentType" : 5123,
            "count" : 372,
            "type" : "SCALAR"
        },
        {
            "bufferView" : 28,
            "componentType" : 5126,
            "count" : 4,
            "max" : [
                2.5
            ],
            "min" : [
                0
            ],
            "type" : "SCALAR"
        },
        {
            "bufferView" : 29,
            "componentType" : 5126,
            "count" : 12,
            "type" : "VEC3"
        }
    ],
    "bufferViews" : [
        {
            "buffer" : 0,
            "byteLength" : 4632,
            "byteOffset" : 0
        },
        {
            "buffer" : 0,
            "byteLength" : 4632,
            "byteOffset" : 4632
        },
        {
            "buffer" : 0,
            "byteLength" : 3088,
            "byteOffset" : 9264
        },
        {
            "buffer" : 0,
            "byteLength" : 2592,
            "byteOffset" : 12352
        },
        {
            "buffer" : 0,
            "byteLength" : 1824,
            "byteOffset" : 14944
        },
        {
            "buffer" : 0,
            "byteLength" : 1824,
            "byteOffset" : 16768
        },
        {
            "buffer" : 0,
            "byteLength" : 1216,
            "byteOffset" : 18592
        },
        {
            "buffer" : 0,
            "byteLength" : 864,
            "byteOffset" : 19808
        },
        {
            "buffer" : 0,
            "byteLength" : 4908,
            "byteOffset" : 20672
        },
        {
            "buffer" : 0,
            "byteLength" : 4908,
            "byteOffset" : 25580
        },
        {
            "buffer" : 0,
            "byteLength" : 3272,
            "byteOffset" : 30488
        },
        {
            "buffer" : 0,
            "byteLength" : 4752,
            "byteOffset" : 33760
        },
        {
            "buffer" : 0,
            "byteLength" : 7116,
            "byteOffset" : 38512
        },
        {
            "buffer" : 0,
            "byteLength" : 7116,
            "byteOffset" : 45628
        },
        {
            "buffer" : 0,
            "byteLength" : 4744,
            "byteOffset" : 52744
        },
        {
            "buffer" : 0,
            "byteLength" : 1860,
            "byteOffset" : 57488
        },
        {
            "buffer" : 0,
            "byteLength" : 10416,
            "byteOffset" : 59348
        },
        {
            "buffer" : 0,
            "byteLength" : 10416,
            "byteOffset" : 69764
        },
        {
            "buffer" : 0,
            "byteLength" : 6944,
            "byteOffset" : 80180
        },
        {
            "buffer" : 0,
            "byteLength" : 3648,
            "byteOffset" : 87124
        },
        {
            "buffer" : 0,
            "byteLength" : 624,
            "byteOffset" : 90772
        },
        {
            "buffer" : 0,
            "byteLength" : 624,
            "byteOffset" : 91396
        },
        {
            "buffer" : 0,
            "byteLength" : 416,
            "byteOffset" : 92020
        },
        {
            "buffer" : 0,
            "byteLength" : 288,
            "byteOffset" : 92436
        },
        {
            "buffer" : 0,
            "byteLength" : 2304,
            "byteOffset" : 92724
        },
        {
            "buffer" : 0,
            "byteLength" : 2304,
            "byteOffset" : 95028
        },
        {
            "buffer" : 0,
            "byteLength" : 1536,
            "byteOffset" : 97332
        },
        {
            "buffer" : 0,
            "byteLength" : 744,
            "byteOffset" : 98868
        },
        {
            "buffer" : 0,
            "byteLength" : 16,
            "byteOffset" : 99612
        },
        {
            "buffer" : 0,
            "byteLength" : 144,
            "byteOffset" : 99628
        }
    ],
    "buffers" : [
        {
            "byteLength" : 99772,
            "uri" : "data:application/octet-stream;base64,"
        }
    ]
}
