{
    "asset" : {
        "generator" : "Khronos glTF Blender I/O v0.9.36",
        "version" : "2.0"
    },
    "scene" : 0,
    "scenes" : [
        {
            "name" : "Scene",
            "nodes" : [
                0,
                1,
                2
            ]
        }
    ],
    "nodes" : [
        {
            "mesh" : 0,
            "name" : "liquid_unloaded_001_Mesh.010",
            "rotation" : [
                0.7071068286895752,
                0,
                0,
                0.7071067094802856
            ],
            "translation" : [
                -0.00032816280145198107,
                0,
                0.0011506397277116776
            ]
        },
        {
            "mesh" : 1,
            "name" : "hcup_002_Mesh.011",
            "rotation" : [
                0.7071068286895752,
                0,
                0,
                0.7071067094802856
            ],
            "translation" : [
                -0.00016762316226959229,
                0.0006158975884318352,
                0.000769871287047863
            ]
        },
        {
            "mesh" : 2,
            "name" : "potion_002_Mesh.012",
            "rotation" : [
                0.7071068286895752,
                0,
                0,
                0.7071067094802856
            ],
            "translation" : [
                -0.0007086932891979814,
                -0.001176735619083047,
                0.0008133568335324526
            ]
        }
    ],
    "materials" : [
        {
            "doubleSided" : true,
            "name" : "None",
            "pbrMetallicRoughness" : {
                "baseColorFactor" : [
                    0.6398285031318665,
                    0.777069628238678,
                    0.8000000715255737,
                    1
                ],
                "metallicFactor" : 0,
                "roughnessFactor" : 0.2546440064907074
            }
        },
        {
            "doubleSided" : true,
            "name" : "dbl_bigcup_001.002",
            "pbrMetallicRoughness" : {
                "baseColorFactor" : [
                    0.6627449989318848,
                    0.6627449989318848,
                    0.6627449989318848,
                    1
                ],
                "metallicFactor" : 0,
                "roughnessFactor" : 0.5527864098548889
            }
        },
        {
            "doubleSided" : true,
            "name" : "dbl_hcup_001",
            "pbrMetallicRoughness" : {
                "baseColorFactor" : [
                    0.800000011920929,
                    0.443136990070343,
                    0.36862701177597046,
                    1
                ],
                "metallicFactor" : 0,
                "roughnessFactor" : 0.5527864098548889
            }
        },
        {
            "alphaMode" : "BLEND",
            "doubleSided" : true,
            "name" : "dbl_potion_001.002",
            "pbrMetallicRoughness" : {
                "baseColorFactor" : [
                    0.011238151229918003,
                    0.5495294332504272,
                    0.8000000715255737,
                    0.6000000238418579
                ],
                "metallicFactor" : 0,
                "roughnessFactor" : 0.06707212328910828
            }
        },
        {
            "doubleSided" : true,
            "name" : "dbl_potion_002",
            "pbrMetallicRoughness" : {
                "baseColorFactor" : [
                    1,
                    1,
                    1,
                    1
                ],
                "metallicFactor" : 0,
                "roughnessFactor" : 0.5527864098548889
            }
        }
    ],
    "meshes" : [
        {
            "name" : "liquid_unloaded_001_Mesh.010",
            "primitives" : [
                {
                    "attributes" : {
                        "POSITION" : 0,
                        "NORMAL" : 1,
                        "TEXCOORD_0" : 2
                    },
                    "indices" : 3,
                    "material" : 0
                }
            ]
        },
        {
            "name" : "hcup_002_Mesh.011",
            "primitives" : [
                {
                    "attributes" : {
                        "POSITION" : 4,
                        "NORMAL" : 5,
                        "TEXCOORD_0" : 6
                    },
                    "indices" : 7,
                    "material" : 1
                },
                {
                    "attributes" : {
                        "POSITION" : 8,
                        "NORMAL" : 9,
                        "TEXCOORD_0" : 10
                    },
                    "indices" : 11,
                    "material" : 2
                }
            ]
        },
        {
            "name" : "potion_002_Mesh.012",
            "primitives" : [
                {
                    "attributes" : {
                        "POSITION" : 12,
                        "NORMAL" : 13,
                        "TEXCOORD_0" : 14
                    },
                    "indices" : 15,
                    "material" : 3
                },
                {
                    "attributes" : {
                        "POSITION" : 16,
                        "NORMAL" : 17,
                        "TEXCOORD_0" : 18
                    },
                    "indices" : 19,
                    "material" : 4
                }
            ]
        }
    ],
    "accessors" : [
        {
            "bufferView" : 0,
            "componentType" : 5126,
            "count" : 724,
            "max" : [
                -0.02626900002360344,
                0.10209900140762329,
                -0.012645999900996685
            ],
            "min" : [
                -0.046268999576568604,
                0.08209899812936783,
                -0.04594599828124046
            ],
            "type" : "VEC3"
        },
        {
            "bufferView" : 1,
            "componentType" : 5126,
            "count" : 724,
            "type" : "VEC3"
        },
        {
            "bufferView" : 2,
            "componentType" : 5126,
            "count" : 724,
            "type" : "VEC2"
        },
        {
            "bufferView" : 3,
            "componentType" : 5123,
            "count" : 1284,
            "type" : "SCALAR"
        },
        {
            "bufferView" : 4,
            "componentType" : 5126,
            "count" : 432,
            "max" : [
                -0.029524000361561775,
                0.0988439992070198,
                -0.056811001151800156
            ],
            "min" : [
                -0.043014999479055405,
                0.08535300195217133,
                -0.06411100178956985
            ],
            "type" : "VEC3"
        },
        {
            "bufferView" : 5,
            "componentType" : 5126,
            "count" : 432,
            "type" : "VEC3"
        },
        {
            "bufferView" : 6,
            "componentType" : 5126,
            "count" : 432,
            "type" : "VEC2"
        },
        {
            "bufferView" : 7,
            "componentType" : 5123,
            "count" : 1872,
            "type" : "SCALAR"
        },
        {
            "bufferView" : 8,
            "componentType" : 5126,
            "count" : 96,
            "max" : [
                -0.03216800093650818,
                0.09619999676942825,
                -0.057861000299453735
            ],
            "min" : [
                -0.04037100076675415,
                0.08799699693918228,
                -0.06390299648046494
            ],
            "type" : "VEC3"
        },
        {
            "bufferView" : 9,
            "componentType" : 5126,
            "count" : 96,
            "type" : "VEC3"
        },
        {
            "bufferView" : 10,
            "componentType" : 5126,
            "count" : 96,
            "type" : "VEC2"
        },
        {
            "bufferView" : 11,
            "componentType" : 5123,
            "count" : 276,
            "type" : "SCALAR"
        },
        {
            "bufferView" : 12,
            "componentType" : 5126,
            "count" : 793,
            "max" : [
                -0.02416899986565113,
                0.10419899970293045,
                -0.009934999980032444
            ],
            "min" : [
                -0.04836900159716606,
                0.07999899983406067,
                -0.058410998433828354
            ],
            "type" : "VEC3"
        },
        {
            "bufferView" : 13,
            "componentType" : 5126,
            "count" : 793,
            "type" : "VEC3"
        },
        {
            "bufferView" : 14,
            "componentType" : 5126,
            "count" : 793,
            "type" : "VEC2"
        },
        {
            "bufferView" : 15,
            "componentType" : 5123,
            "count" : 4416,
            "type" : "SCALAR"
        },
        {
            "bufferView" : 16,
            "componentType" : 5126,
            "count" : 16,
            "max" : [
                -0.02416899986565113,
                0.10419899970293045,
                -0.01765199936926365
            ],
            "min" : [
                -0.03940099850296974,
                0.09209900349378586,
                -0.04570800065994263
            ],
            "type" : "VEC3"
        },
        {
            "bufferView" : 17,
            "componentType" : 5126,
            "count" : 16,
            "type" : "VEC3"
        },
        {
            "bufferView" : 18,
            "componentType" : 5126,
            "count" : 16,
            "type" : "VEC2"
        },
        {
            "bufferView" : 19,
            "componentType" : 5123,
            "count" : 42,
            "type" : "SCALAR"
        }
    ],
    "bufferViews" : [
        {
            "buffer" : 0,
            "byteLength" : 8688,
            "byteOffset" : 0
        },
        {
            "buffer" : 0,
            "byteLength" : 8688,
            "byteOffset" : 8688
        },
        {
            "buffer" : 0,
            "byteLength" : 5792,
            "byteOffset" : 17376
        },
        {
            "buffer" : 0,
            "byteLength" : 2568,
            "byteOffset" : 23168
        },
        {
            "buffer" : 0,
            "byteLength" : 5184,
            "byteOffset" : 25736
        },
        {
            "buffer" : 0,
            "byteLength" : 5184,
            "byteOffset" : 30920
        },
        {
            "buffer" : 0,
            "byteLength" : 3456,
            "byteOffset" : 36104
        },
        {
            "buffer" : 0,
            "byteLength" : 3744,
            "byteOffset" : 39560
        },
        {
            "buffer" : 0,
            "byteLength" : 1152,
            "byteOffset" : 43304
        },
        {
            "buffer" : 0,
            "byteLength" : 1152,
            "byteOffset" : 44456
        },
        {
            "buffer" : 0,
            "byteLength" : 768,
            "byteOffset" : 45608
        },
        {
            "buffer" : 0,
            "byteLength" : 552,
            "byteOffset" : 46376
        },
        {
            "buffer" : 0,
            "byteLength" : 9516,
            "byteOffset" : 46928
        },
        {
            "buffer" : 0,
            "byteLength" : 9516,
            "byteOffset" : 56444
        },
        {
            "buffer" : 0,
            "byteLength" : 6344,
            "byteOffset" : 65960
        },
        {
            "buffer" : 0,
            "byteLength" : 8832,
            "byteOffset" : 72304
        },
        {
            "buffer" : 0,
            "byteLength" : 192,
            "byteOffset" : 81136
        },
        {
            "buffer" : 0,
            "byteLength" : 192,
            "byteOffset" : 81328
        },
        {
            "buffer" : 0,
            "byteLength" : 128,
            "byteOffset" : 81520
        },
        {
            "buffer" : 0,
            "byteLength" : 84,
            "byteOffset" : 81648
        }
    ],
    "buffers" : [
        {
            "byteLength" : 81732,
            "uri" : "data:application/octet-stream;base64,"
        }
    ]
}
